<svg width="616.7562866210938px" height="178.4px" xmlns="http://www.w3.org/2000/svg" viewBox="-58.378143310546875 -14.200000000000003 616.7562866210938 178.4" style="background: rgba(0, 0, 0, 0);" preserveAspectRatio="xMidYMid"><defs><filter id="editing-extrude-glow"><feFlood flood-color="#333333" result="flood-1"></feFlood><feMorphology operator="erode" radius="1" in="SourceAlpha" result="erode"></feMorphology><feComposite operator="in" in="flood-1" in2="erode" result="comp1"></feComposite><feConvolveMatrix order="4,4" divisor="1" in="comp1" result="convolve" kernelMatrix="0 0 0 0 0 0 0 0 1 1 1 1 0 0 0 0"></feConvolveMatrix><feOffset dx="-4" dy="0" in="convolve" result="extrude"></feOffset><feComposite operator="in" in="flood-1" in2="extrude" result="comp-extrude"></feComposite><feFlood flood-color="#000000" result="flood-2"></feFlood><feComposite operator="in" in="flood-2" in2="SourceAlpha" result="comp2"></feComposite><feMorphology operator="dilate" radius="1" in="comp2" result="dilate"></feMorphology><feOffset dx="-6" dy="0" in="dilate" result="offset"></feOffset><feGaussianBlur in="offset" stdDeviation="5.8" result="blur"></feGaussianBlur><feComponentTransfer in="blur" result="shadow"><feFuncA type="linear" slope="0.8" intercept="-0.2"></feFuncA></feComponentTransfer><feMerge><feMergeNode in="shadow"></feMergeNode><feMergeNode in="comp-extrude"></feMergeNode><feMergeNode in="SourceGraphic"></feMergeNode></feMerge></filter></defs><g filter="url(#editing-extrude-glow)"><g transform="translate(31.199967861175537, 118.54999923706055)"><path d="M53.90-20.70L53.90-20.70L53.90-20.70Q56.50-18.80 56.50-14.75L56.50-14.75L56.50-14.75Q56.50-10.70 54.75-7.85L54.75-7.85L54.75-7.85Q53-5 49.60-2.80L49.60-2.80L49.60-2.80Q42.30 1.90 29.55 1.90L29.55 1.90L29.55 1.90Q16.80 1.90 9.85-4.75L9.85-4.75L9.85-4.75Q2.90-11.40 2.90-23.20L2.90-23.20L2.90-23.20Q2.90-39.90 11.60-52.60L11.60-52.60L11.60-52.60Q18.20-62 30-66L30-66L30-66Q36.10-68 42.10-68L42.10-68L42.10-68Q48.10-68 51.80-67.20L51.80-67.20L51.80-67.20Q55.50-66.40 58.30-64.80L58.30-64.80L58.30-64.80Q64.40-61.30 64.40-55.70L64.40-55.70L64.40-55.70Q64.40-50.60 59.60-46.80L59.60-46.80L59.60-46.80Q55.20-43.40 51.60-43.40L51.60-43.40L51.60-43.40Q48-43.40 46.50-43.90L46.50-43.90L46.50-43.90Q46.90-47.50 46.90-49.85L46.90-49.85L46.90-49.85Q46.90-52.20 46.80-53.90L46.80-53.90L46.80-53.90Q46.70-55.60 46.20-57.20L46.20-57.20L46.20-57.20Q45.20-60.90 42.15-60.90L42.15-60.90L42.15-60.90Q39.10-60.90 36.05-58.05L36.05-58.05L36.05-58.05Q33-55.20 30.40-50.40L30.40-50.40L30.40-50.40Q24.50-39.50 24.50-26.60L24.50-26.60L24.50-26.60Q24.50-20.40 28-16.85L28-16.85L28-16.85Q31.50-13.30 39-13.30L39-13.30L39-13.30Q44.60-13.30 49.90-17L49.90-17L49.90-17Q52.20-18.60 53.90-20.70ZM67.30-62L67.30-62L67.30-62Q70.20-68 78.25-68L78.25-68L78.25-68Q86.30-68 90.05-63.35L90.05-63.35L90.05-63.35Q93.80-58.70 93.80-48L93.80-48L93.80-12.30L118.10-65.90L130-65.90L98.90 0L75.50 0L72.50-48L72.50-48Q72.20-53.30 70.75-56.90L70.75-56.90L70.75-56.90Q69.30-60.50 67.30-62ZM134 13.80L134 13.80L134 13.80Q139.10 13.20 142.30 6.60L142.30 6.60L142.30 6.60Q145.60-0.10 148.60-15.50L148.60-15.50L158.30-66L180-66L170.30-15.50L170.30-15.50Q166.60 4.10 160.50 11.80L160.50 11.80L160.50 11.80Q157.30 15.80 153.25 17.40L153.25 17.40L153.25 17.40Q149.20 19 144.80 19L144.80 19L144.80 19Q140.40 19 137.55 17.40L137.55 17.40L137.55 17.40Q134.70 15.80 134 13.80ZM202.70 0L181.30 0L193.50-65.70L193.50-65.70Q203.40-66.80 217.85-66.80L217.85-66.80L217.85-66.80Q232.30-66.80 239-62.60L239-62.60L239-62.60Q245.70-58.40 245.70-49.95L245.70-49.95L245.70-49.95Q245.70-41.50 241.35-36.20L241.35-36.20L241.35-36.20Q237-30.90 229.50-29.20L229.50-29.20L229.50-29.20Q231.20-20.90 235.10-14.20L235.10-14.20L235.10-14.20Q238.70-7.90 242.90-5.90L242.90-5.90L242.90-5.90Q241.40-1.70 238.35 0.15L238.35 0.15L238.35 0.15Q235.30 2 230.95 2L230.95 2L230.95 2Q226.60 2 223.20-0.55L223.20-0.55L223.20-0.55Q219.80-3.10 217.10-7.80L217.10-7.80L217.10-7.80Q211.40-18 210.80-34.10L210.80-34.10L211.50-34.10L211.50-34.10Q218.90-34.30 222.60-38.15L222.60-38.15L222.60-38.15Q226.30-42 226.30-50.10L226.30-50.10L226.30-50.10Q226.30-60.20 217.80-60.60L217.80-60.60L215.60-60.60L215.60-60.60Q214.70-60.60 214.20-60.50L214.20-60.50L202.70 0ZM251.80-24.40L251.80-24.40L251.80-24.40Q251.80-43.30 261.60-55.20L261.60-55.20L261.60-55.20Q272-68.10 290.10-68.10L290.10-68.10L290.10-68.10Q303.20-68.10 309.80-61.75L309.80-61.75L309.80-61.75Q316.40-55.40 316.40-42L316.40-42L316.40-42Q316.40-21.60 306-9.70L306-9.70L306-9.70Q295.70 2 278.40 2L278.40 2L278.40 2Q264.90 2 258.35-4.75L258.35-4.75L258.35-4.75Q251.80-11.50 251.80-24.40ZM278.10-45.10L278.10-45.10L278.10-45.10Q273.60-27.10 273.60-12.90L273.60-12.90L273.60-12.90Q273.60-9.50 274.75-7.30L274.75-7.30L274.75-7.30Q275.90-5.10 278.95-5.10L278.95-5.10L278.95-5.10Q282-5.10 283.90-6.55L283.90-6.55L283.90-6.55Q285.80-8 287.30-11.30L287.30-11.30L287.30-11.30Q289.70-16.70 291.95-28.15L291.95-28.15L291.95-28.15Q294.20-39.60 294.40-44.35L294.40-44.35L294.40-44.35Q294.60-49.10 294.60-52.70L294.60-52.70L294.60-52.70Q294.60-56.30 293.50-58.60L293.50-58.60L293.50-58.60Q292.40-60.90 289.45-60.90L289.45-60.90L289.45-60.90Q286.50-60.90 284.50-59.10L284.50-59.10L284.50-59.10Q280.80-55.70 278.10-45.10ZM360.30-46.20L360.30-46.20L360.30-46.20Q361.80-49.20 361.80-52L361.80-52L361.80-52Q361.80-54.80 361.50-56.35L361.50-56.35L361.50-56.35Q361.20-57.90 360.50-59.10L360.50-59.10L360.50-59.10Q359-61.70 356-61.70L356-61.70L356-61.70Q352.30-61.70 349.30-59L349.30-59L349.30-59Q346.10-56.20 346.10-51.80L346.10-51.80L346.10-51.80Q346.10-49 348.05-46.85L348.05-46.85L348.05-46.85Q350-44.70 353-42.70L353-42.70L353-42.70Q356-40.70 359.40-38.70L359.40-38.70L359.40-38.70Q362.80-36.70 365.80-34.30L365.80-34.30L365.80-34.30Q372.70-28.80 372.70-21.40L372.70-21.40L372.70-21.40Q372.70-16.40 370.05-12.15L370.05-12.15L370.05-12.15Q367.40-7.90 363-4.80L363-4.80L363-4.80Q353.40 2 340.70 2L340.70 2L340.70 2Q330.40 2 325.10-1.35L325.10-1.35L325.10-1.35Q319.80-4.70 319.80-9.80L319.80-9.80L319.80-9.80Q319.80-18.90 326.90-21.20L326.90-21.20L326.90-21.20Q328.90-21.90 331.95-21.90L331.95-21.90L331.95-21.90Q335-21.90 338.50-20.60L338.50-20.60L338.50-20.60Q336.90-16.50 336.90-12.80L336.90-12.80L336.90-12.80Q336.90-4.80 342.60-4.80L342.60-4.80L342.60-4.80Q346.30-4.80 349.35-7.50L349.35-7.50L349.35-7.50Q352.40-10.20 352.40-13.25L352.40-13.25L352.40-13.25Q352.40-16.30 350.45-18.50L350.45-18.50L350.45-18.50Q348.50-20.70 345.60-22.45L345.60-22.45L345.60-22.45Q342.70-24.20 339.35-25.90L339.35-25.90L339.35-25.90Q336-27.60 333.10-30L333.10-30L333.10-30Q326.30-35.50 326.30-44.30L326.30-44.30L326.30-44.30Q326.30-50 329.10-54.45L329.10-54.45L329.10-54.45Q331.90-58.90 336.40-61.90L336.40-61.90L336.40-61.90Q345.40-68 356.45-68L356.45-68L356.45-68Q367.50-68 372.85-64.70L372.85-64.70L372.85-64.70Q378.20-61.40 378.20-55.80L378.20-55.80L378.20-55.80Q378.20-50.90 374.40-47.80L374.40-47.80L374.40-47.80Q371.10-45.20 367.10-45.20L367.10-45.20L367.10-45.20Q363.10-45.20 360.30-46.20ZM423.70 2L423.70 2L423.70 2Q410.90 2 409.70-16.20L409.70-16.20L392.50-16.20L392.50-16.20Q390.50-11.60 389.10-7.60L389.10-7.60L386.50 0L372.50 0L404-66L425.50-66L429.70-17.40L429.70-17.40Q430.70-6.90 434.70-3.80L434.70-3.80L434.70-3.80Q431.80 2 423.70 2ZM401.10-36.20L395.60-23.50L409.40-23.50L408.20-49.20L408.20-51.90L401.10-36.20Z" fill="#1f3bb3"></path></g></g><style>text {
  font-size: 64px;
  font-family: Arial Black;
  dominant-baseline: central;
  text-anchor: middle;
}</style></svg>